<svg width="3796" height="1139" viewBox="0 0 3796 1139" fill="none" xmlns="http://www.w3.org/2000/svg">
<path d="M2490.98 1138.34L2422.98 941.989C2424.42 941.545 2425.02 941.207 2425.62 941.207C2436.81 941.171 2447.99 941.18 2460.07 941.18L2506.57 1085.46C2513.08 1068.6 2517.7 1052.67 2523.02 1037.02C2528.39 1021.15 2533.58 1005.21 2538.82 989.293C2544.07 973.392 2549.31 957.455 2554.63 941.224H2584.19C2599.84 988.555 2615.56 1036.16 2631.3 1083.73L2632.83 1083.78C2648.14 1036.32 2663.42 988.875 2678.69 941.509H2714.96L2646.77 1138.36H2617.22C2616.3 1136.08 2615.29 1133.86 2614.5 1131.55C2600.24 1089.96 2586.02 1048.36 2571.76 1006.79C2571.02 1004.64 2570.21 1002.52 2569.41 1000.37C2567.47 1002.69 2566.67 1004.72 2565.95 1006.79C2552.59 1045.86 2539.23 1084.91 2525.83 1123.98C2524.16 1128.8 2522.29 1133.56 2520.49 1138.36C2510.69 1138.34 2500.83 1138.34 2490.98 1138.34ZM2948.97 1136.44V941.66C2950.88 941.473 2952.58 941.162 2954.31 941.162C2981.84 941.127 3009.34 941.029 3036.87 941.189C3048.78 941.278 3060.52 942.843 3071.55 947.726C3096.91 958.976 3107.68 986.385 3096.75 1011.57C3093.32 1019.41 3087.96 1025.52 3081.03 1030.38C3078.88 1031.9 3076.71 1033.39 3073.99 1035.26C3078.04 1037.16 3081.43 1038.69 3084.75 1040.31C3102.48 1049.01 3111.72 1062.98 3111.59 1083.07C3111.44 1103.3 3102.81 1118.25 3084.85 1127.68C3073.92 1133.47 3061.77 1136.58 3049.4 1136.76C3016.74 1137.23 2984.06 1137.01 2951.4 1137.03C2950.78 1137.04 2950.15 1136.76 2948.97 1136.44ZM2983.1 1105.93C3005.87 1105.93 3027.98 1106.18 3050.1 1105.73C3054.82 1105.65 3059.73 1103.63 3064.12 1101.58C3073.43 1097.26 3077.44 1089.3 3077.3 1079.28C3077.17 1069.46 3072.84 1061.82 3063.71 1057.98C3058.44 1055.75 3052.59 1053.95 3046.95 1053.74C3026.82 1053.11 3006.68 1053.23 2986.54 1053.11C2985.49 1053.1 2984.44 1053.51 2983.08 1053.78C2983.1 1071.17 2983.1 1088.29 2983.1 1105.93ZM2983.06 1023.33C2984.37 1023.62 2985.02 1023.89 2985.66 1023.89C3001.09 1023.9 3016.52 1024.06 3031.95 1023.78C3039.34 1023.66 3046.62 1022.38 3053.36 1018.93C3062.83 1014.1 3066.63 1006.19 3066.28 995.857C3065.93 985.46 3060.62 978.39 3051.1 975.126C3045.38 973.229 3039.42 972.19 3033.4 972.04C3018.42 971.613 3003.44 971.871 2988.44 971.916C2986.75 971.916 2985.02 972.218 2983.06 972.431V1023.33ZM1668.81 941.5H1702.89V1137.07C1693.84 1137.07 1684.99 1137.32 1676.15 1136.86C1674.26 1136.76 1672.18 1134.31 1670.76 1132.5C1653.3 1110.07 1635.94 1087.57 1618.57 1065.1C1603.11 1045.09 1587.63 1025.1 1572.16 1005.1C1570.94 1003.52 1569.63 1002.02 1568.38 1000.54C1567.94 1000.73 1567.73 1000.79 1567.54 1000.93C1567.38 1001.04 1567.2 1001.19 1567.14 1001.37C1567.02 1001.8 1566.95 1002.24 1566.94 1002.68C1566.83 1046.98 1566.74 1091.28 1566.65 1135.58C1566.65 1135.76 1566.43 1135.94 1566.01 1136.61H1532.89V941.162C1543.02 941.162 1552.8 940.94 1562.55 941.358C1564.42 941.456 1566.51 943.946 1567.93 945.778C1585.12 967.825 1602.18 989.996 1619.29 1012.11L1663.64 1069.46C1664.95 1071.13 1666.39 1072.75 1668.8 1075.68L1668.81 941.5ZM1250.34 1136.35V941.625H1394.88C1395.39 951.443 1394.96 961.386 1395.1 972.236C1376.48 972.725 1358.23 972.405 1340.01 972.449C1321.72 972.512 1303.45 972.458 1284.75 972.458V1022.53H1381.34C1382.88 1027.93 1383.11 1045.32 1381.83 1053.58H1285.89C1284 1058.88 1283.62 1097.85 1285.3 1106.02H1396V1135.96C1391.42 1137.36 1259.52 1137.8 1250.34 1136.35ZM1759.33 1136.35V941.625H1903.87C1904.38 951.443 1903.95 961.377 1904.09 972.271C1885.47 972.672 1867.22 972.414 1849 972.458C1830.72 972.511 1812.45 972.467 1793.73 972.467V1022.54H1890.33C1891.87 1027.93 1892.11 1045.32 1890.79 1053.79H1793.72V1106.03H1904.99V1135.96C1900.42 1137.35 1768.54 1137.8 1759.33 1136.35ZM2756.09 941.393H2899.85C2901.5 946.454 2900.47 951.585 2900.67 956.601C2900.84 961.501 2900.71 966.411 2900.71 972.298C2893.06 972.369 2885.79 972.458 2878.52 972.485C2871.36 972.511 2864.2 972.485 2857.04 972.485H2791.43C2789.77 977.465 2789.44 1014.55 2790.98 1022.58H2887.76V1053.59H2791.54C2789.78 1058.84 2789.43 1097.52 2790.98 1106.04H2901.62V1136C2896.98 1137.34 2764.7 1137.73 2756.1 1136.35C2756.09 1071.66 2756.09 1006.89 2756.09 941.393ZM1193.48 1136.76H1160.15V1055.33H1066.13C1065.95 1082.21 1066.16 1109.18 1066.02 1136.6H1032.99C1031.53 1132.05 1031.13 949.816 1032.66 941.536H1065.91V1022.29H1159.79V941.58H1193.22C1194.6 946.338 1194.91 1129.2 1193.48 1136.76ZM2117.76 941.465L2049.65 1037.01C2073.07 1070.06 2096.4 1102.98 2120.3 1136.73C2117.15 1136.91 2115.22 1137.08 2113.3 1137.09C2104.58 1137.13 2095.84 1136.82 2087.14 1137.22C2081.91 1137.45 2078.67 1135.86 2075.64 1131.39C2061.61 1110.64 2047.19 1090.14 2032.89 1069.58C2031.62 1067.79 2030.25 1066.06 2028.42 1063.63C2026.71 1065.99 2025.27 1067.88 2023.91 1069.79C2009.45 1090.52 1994.92 1111.2 1980.63 1132.04C1978.09 1135.72 1975.42 1137.42 1970.81 1137.22C1962.1 1136.83 1953.37 1137.13 1944.64 1137.09C1942.69 1137.08 1940.75 1136.92 1937.49 1136.76C1961.45 1103.28 1984.8 1070.66 2008.47 1037.61C1985.83 1005.78 1963.32 974.139 1940.21 941.696C1942.93 941.456 1944.58 941.171 1946.23 941.162C1955.87 941.127 1965.48 941.322 1975.1 941.056C1979.12 940.949 1981.59 942.292 1983.85 945.636C1997.48 965.584 2011.3 985.407 2025.08 1005.23C2026.33 1007.03 2027.7 1008.75 2029.34 1010.94C2030.98 1008.75 2032.31 1007.04 2033.57 1005.26C2047.28 985.638 2061.03 966.046 2074.58 946.329C2077.07 942.719 2079.64 940.78 2084.37 941.02C2093.29 941.447 2102.25 941.136 2111.22 941.153C2112.91 941.153 2114.61 941.296 2117.76 941.465ZM2244.66 973.232V1136.61H2209.82C2209.4 1125.87 2209.66 1114.99 2209.63 1104.16C2209.58 1093.43 2209.63 1082.68 2209.63 1071.96V1039.08V1006.87V973.33H2147.81V941.589H2306.38V973.25C2285.83 973.232 2265.62 973.232 2244.66 973.232ZM927.956 1136.86H893.192C893.139 1127.6 893.076 1118.52 893.05 1109.44C893.032 1100.5 893.05 1091.55 893.05 1082.59V1055.07V1028.21V1000.69V973.463H832.37C830.76 968.198 830.529 948.944 831.89 941.509H989.445C989.632 943.599 989.881 945.351 989.89 947.067C989.943 955.516 989.917 963.965 989.917 973.214H927.956V1136.86Z" fill="black"/>
<path d="M265.578 761.344C262.974 758.74 261.672 754.833 261.672 749.625C261.672 742.333 262.974 738.688 265.578 738.688C270.786 738.688 277.557 737.906 285.891 736.344C294.224 734.781 302.297 732.698 310.109 730.094C317.922 727.49 323.391 724.625 326.516 721.5C335.37 712.125 340.057 689.469 340.578 653.531C341.62 593.115 342.661 538.948 343.703 491.031C345.266 442.594 346.568 403.01 347.609 372.281C348.651 341.031 349.172 320.979 349.172 312.125C349.172 298.062 348.13 287.646 346.047 280.875C345.005 277.75 340.318 275.146 331.984 273.062C324.172 270.458 315.578 268.375 306.203 266.812C296.828 265.25 289.536 264.469 284.328 264.469C282.245 264.469 281.203 260.823 281.203 253.531C281.203 247.802 282.245 243.896 284.328 241.812C296.828 242.333 310.63 243.115 325.734 244.156C340.839 245.198 356.203 245.719 371.828 245.719C381.724 245.719 392.401 245.458 403.859 244.938C415.839 243.896 429.12 242.854 443.703 241.812C447.87 253.271 499.432 383.74 598.391 633.219C599.432 634.26 600.474 634.781 601.516 634.781C603.599 634.781 604.901 633.74 605.422 631.656C630.943 571.76 653.859 517.073 674.172 467.594C694.484 418.115 712.193 374.104 727.297 335.562L758.547 241.812C775.214 242.854 788.755 243.635 799.172 244.156C810.109 244.677 818.182 244.938 823.391 244.938C839.536 244.938 854.901 244.677 869.484 244.156C884.068 243.635 897.87 242.854 910.891 241.812C912.453 246.5 913.234 250.406 913.234 253.531C913.234 260.823 911.932 264.469 909.328 264.469H907.766C902.036 264.469 894.484 266.292 885.109 269.938C875.734 273.062 868.703 276.448 864.016 280.094C857.766 284.781 854.641 302.229 854.641 332.438L861.672 649.625C862.714 679.833 866.62 703.792 873.391 721.5C874.953 724.625 879.12 727.49 885.891 730.094C892.661 732.698 899.953 734.781 907.766 736.344C916.099 737.906 922.089 738.688 925.734 738.688C927.818 738.688 928.859 742.333 928.859 749.625C928.859 753.271 928.339 757.177 927.297 761.344C901.255 760.302 880.422 759.521 864.797 759C849.693 757.958 839.536 757.438 834.328 757.438L740.578 761.344C738.495 759.26 737.453 755.094 737.453 748.844C737.453 742.073 738.495 738.688 740.578 738.688C745.786 738.688 753.599 737.385 764.016 734.781C774.953 732.177 782.766 729.573 787.453 726.969C793.703 722.802 796.828 711.604 796.828 693.375V651.969L787.453 376.969C787.453 371.24 786.672 364.99 785.109 358.219C784.068 350.927 782.766 344.677 781.203 339.469C779.641 333.74 777.818 330.875 775.734 330.875C774.693 330.875 773.391 332.698 771.828 336.344L608.547 726.969C598.651 749.365 589.016 760.562 579.641 760.562C579.12 760.562 576.776 760.042 572.609 759L393.703 304.312C392.141 377.75 390.318 443.375 388.234 501.188C386.151 558.479 384.328 604.573 382.766 639.469C381.724 674.365 381.203 694.677 381.203 700.406C381.203 709.781 382.766 716.552 385.891 720.719C387.974 723.323 393.182 726.188 401.516 729.312C409.849 731.917 418.443 734.26 427.297 736.344C436.672 737.906 442.922 738.688 446.047 738.688C448.13 738.688 449.172 742.594 449.172 750.406C449.172 753.531 448.651 757.177 447.609 761.344C421.568 760.302 400.995 759.521 385.891 759C370.786 757.958 361.151 757.438 356.984 757.438L265.578 761.344ZM1114.02 761.344C1111.93 759.26 1110.89 755.615 1110.89 750.406C1110.89 743.635 1111.93 740.25 1114.02 740.25C1118.18 740.25 1123.91 739.469 1131.2 737.906C1139.02 736.344 1146.05 734.26 1152.3 731.656C1159.07 728.531 1162.97 725.667 1164.02 723.062C1166.1 714.729 1167.66 704.312 1168.7 691.812C1169.74 679.312 1170.27 664.729 1170.27 648.062V550.406C1170.27 543.115 1164.8 528.531 1153.86 506.656C1148.13 496.24 1137.19 476.188 1121.05 446.5C1104.9 416.812 1083.29 378.01 1056.2 330.094C1047.87 314.469 1041.36 303.792 1036.67 298.062C1032.51 291.812 1026.26 285.823 1017.92 280.094C1012.19 275.927 1003.6 272.021 992.141 268.375C980.682 264.729 972.349 262.906 967.141 262.906C965.057 262.906 964.016 260.042 964.016 254.312C964.016 248.062 965.057 243.896 967.141 241.812L1009.33 244.156C1019.22 244.677 1028.34 245.198 1036.67 245.719C1045.53 246.24 1053.6 246.5 1060.89 246.5C1067.14 246.5 1101.52 244.938 1164.02 241.812C1165.06 243.896 1165.32 248.062 1164.8 254.312C1164.8 260.042 1164.02 262.906 1162.45 262.906C1153.6 262.906 1143.44 265.25 1131.98 269.938C1121.05 274.104 1115.58 280.615 1115.58 289.469C1115.58 294.677 1118.44 302.49 1124.17 312.906L1211.67 478.531C1214.8 481.135 1217.4 480.615 1219.48 476.969C1290.32 370.198 1325.73 307.438 1325.73 288.688C1325.73 282.958 1320.53 277.229 1310.11 271.5C1299.69 265.771 1286.93 262.906 1271.83 262.906C1269.74 262.906 1268.7 259.781 1268.7 253.531C1268.7 247.802 1269.74 243.896 1271.83 241.812L1364.02 246.5C1372.35 247.021 1380.68 247.021 1389.02 246.5C1397.35 245.458 1405.68 244.677 1414.02 244.156C1431.2 242.594 1442.14 241.812 1446.83 241.812C1447.87 245.979 1448.39 249.885 1448.39 253.531C1448.39 259.781 1447.35 262.906 1445.27 262.906C1441.1 262.906 1434.59 263.948 1425.73 266.031C1416.88 268.115 1408.03 270.979 1399.17 274.625C1390.84 278.271 1384.85 282.438 1381.2 287.125C1373.39 299.625 1363.49 315.51 1351.52 334.781C1339.54 353.531 1327.04 373.844 1314.02 395.719C1300.99 417.073 1288.76 437.646 1277.3 457.438C1265.84 476.708 1256.46 493.115 1249.17 506.656C1241.88 520.198 1238.23 528.531 1238.23 531.656V650.406C1238.23 666.552 1238.76 680.615 1239.8 692.594C1240.84 704.573 1242.4 714.729 1244.48 723.062C1245.53 725.146 1249.17 727.75 1255.42 730.875C1262.19 733.479 1269.22 735.823 1276.52 737.906C1283.81 739.469 1289.02 740.25 1292.14 740.25C1294.22 740.25 1295.27 743.635 1295.27 750.406C1295.27 753.531 1294.74 757.177 1293.7 761.344C1267.66 760.302 1247.35 759.521 1232.77 759C1218.18 757.958 1209.33 757.438 1206.2 757.438L1114.02 761.344ZM1710.11 763.688C1675.73 763.688 1643.44 756.917 1613.23 743.375C1583.55 729.833 1557.24 711.344 1534.33 687.906C1511.93 664.469 1494.22 637.385 1481.2 606.656C1468.7 575.406 1462.45 542.333 1462.45 507.438C1462.45 470.458 1468.96 435.823 1481.98 403.531C1495.01 370.719 1513.23 342.073 1536.67 317.594C1560.11 292.594 1587.19 273.062 1617.92 259C1649.17 244.938 1682.77 237.906 1718.7 237.906C1749.43 237.906 1780.68 239.469 1812.45 242.594C1844.22 245.719 1876.26 250.667 1908.55 257.438L1906.98 369.938C1906.98 377.75 1901.52 381.656 1890.58 381.656C1885.37 381.656 1881.98 380.354 1880.42 377.75C1878.86 370.979 1876.78 364.208 1874.17 357.438C1872.09 350.146 1867.4 340.771 1860.11 329.312C1847.61 311.083 1829.64 296.76 1806.2 286.344C1783.29 275.927 1754.9 270.719 1721.05 270.719C1695.53 270.719 1671.57 276.969 1649.17 289.469C1626.78 301.448 1606.98 317.854 1589.8 338.688C1573.13 359.521 1560.11 383.219 1550.73 409.781C1541.36 435.823 1536.67 462.906 1536.67 491.031C1536.67 534.26 1543.96 573.062 1558.55 607.438C1573.13 642.854 1596.05 672.281 1627.3 695.719C1659.07 718.635 1696.57 730.094 1739.8 730.094C1791.36 730.094 1831.2 714.99 1859.33 684.781C1867.66 675.927 1874.17 665.51 1878.86 653.531C1883.55 641.552 1887.19 631.135 1889.8 622.281C1892.4 613.427 1895.01 609 1897.61 609C1900.73 609 1904.38 609.521 1908.55 610.562C1913.23 611.083 1916.88 612.125 1919.48 613.688L1923.39 616.031C1923.39 619.156 1922.35 626.448 1920.27 637.906C1918.18 649.365 1915.58 662.125 1912.45 676.188C1909.33 689.729 1906.2 701.708 1903.08 712.125C1900.47 722.542 1898.39 728.271 1896.83 729.312C1858.29 752.229 1796.05 763.688 1710.11 763.688ZM1959.33 761.344C1957.24 759.26 1956.2 755.354 1956.2 749.625C1956.2 742.333 1957.24 738.688 1959.33 738.688C1965.58 738.688 1973.65 737.385 1983.55 734.781C1993.44 732.177 2000.21 728.531 2003.86 723.844C2009.59 716.552 2015.32 706.917 2021.05 694.938C2027.3 682.958 2033.81 668.115 2040.58 650.406L2176.52 301.188C2179.64 293.375 2181.46 287.906 2181.98 284.781C2183.03 281.656 2183.81 279.052 2184.33 276.969C2185.37 274.365 2187.19 270.198 2189.8 264.469C2193.44 257.177 2197.09 251.448 2200.73 247.281C2204.38 243.115 2210.37 241.031 2218.7 241.031L2225.73 243.375L2381.98 655.875C2386.67 667.854 2390.84 678.531 2394.48 687.906C2398.65 697.281 2402.04 705.354 2404.64 712.125C2406.72 717.333 2411.15 722.021 2417.92 726.188C2425.21 729.833 2432.51 732.958 2439.8 735.562C2447.61 737.646 2453.6 738.688 2457.77 738.688C2459.85 738.688 2460.89 743.635 2460.89 753.531C2460.89 754.573 2460.63 755.875 2460.11 757.438C2460.11 758.479 2459.85 759.781 2459.33 761.344C2433.29 760.302 2412.97 759.521 2398.39 759C2384.33 757.958 2375.99 757.438 2373.39 757.438L2282.77 761.344C2280.68 759.26 2279.64 755.094 2279.64 748.844C2280.16 742.073 2281.46 738.688 2283.55 738.688C2289.8 738.688 2297.61 737.385 2306.98 734.781C2316.36 732.177 2321.83 728.792 2323.39 724.625C2323.91 722.542 2324.17 720.458 2324.17 718.375C2324.69 716.292 2324.95 714.208 2324.95 712.125C2324.95 705.354 2324.17 697.542 2322.61 688.688C2321.05 679.312 2319.22 672.021 2317.14 666.812L2281.98 569.938C2280.42 567.854 2278.86 566.812 2277.3 566.812C2256.98 565.25 2237.19 564.469 2217.92 564.469C2204.38 564.469 2189.28 564.99 2172.61 566.031C2156.46 566.552 2138.49 567.333 2118.7 568.375L2114.8 570.719L2081.2 656.656C2075.99 669.677 2072.35 680.615 2070.27 689.469C2068.7 698.323 2067.92 705.354 2067.92 710.562C2067.92 717.854 2070.01 723.062 2074.17 726.188C2078.86 729.833 2086.41 732.958 2096.83 735.562C2107.24 737.646 2114.8 738.688 2119.48 738.688C2121.05 738.688 2121.83 741.812 2121.83 748.062C2122.35 754.312 2122.09 758.74 2121.05 761.344L2040.58 757.438C2025.99 756.396 2011.67 756.656 1997.61 758.219C1984.07 759.26 1971.31 760.302 1959.33 761.344ZM2190.58 526.969C2214.02 526.969 2237.71 526.188 2261.67 524.625L2264.02 520.719L2200.73 348.062L2133.55 522.281C2133.55 524.365 2134.07 525.406 2135.11 525.406C2148.65 525.927 2159.85 526.448 2168.7 526.969C2178.08 526.969 2185.37 526.969 2190.58 526.969ZM2974.95 762.906C2902.56 762.906 2839.28 725.406 2785.11 650.406C2780.94 644.677 2775.47 636.865 2768.7 626.969C2762.45 617.073 2750.73 599.625 2733.55 574.625C2725.21 562.646 2717.66 552.75 2710.89 544.938C2704.64 536.604 2697.09 530.354 2688.23 526.188C2679.9 522.021 2668.44 519.938 2653.86 519.938C2648.13 519.938 2643.44 520.719 2639.8 522.281C2636.67 523.844 2635.11 527.49 2635.11 533.219V648.062C2635.11 682.438 2637.19 705.094 2641.36 716.031C2643.44 720.198 2648.39 724.104 2656.2 727.75C2664.54 731.396 2673.39 734.26 2682.77 736.344C2692.14 737.906 2698.91 738.688 2703.08 738.688C2705.16 738.688 2706.2 742.333 2706.2 749.625C2706.2 753.271 2705.68 757.177 2704.64 761.344C2678.6 760.302 2656.98 759.26 2639.8 758.219C2623.13 757.177 2610.89 756.917 2603.08 757.438L2507.77 761.344C2506.2 759.781 2505.42 755.094 2505.42 747.281C2505.42 740.51 2506.2 737.125 2507.77 737.125C2512.97 737.125 2519.22 736.344 2526.52 734.781C2534.33 733.219 2541.62 731.396 2548.39 729.312C2555.68 726.708 2560.11 723.844 2561.67 720.719C2565.32 714.99 2567.14 690.51 2567.14 647.281V351.969C2567.14 336.865 2566.62 323.583 2565.58 312.125C2565.06 300.667 2563.76 291.552 2561.67 284.781C2560.63 281.656 2556.46 278.792 2549.17 276.188C2542.4 273.583 2534.85 271.5 2526.52 269.938C2518.7 268.375 2512.45 267.594 2507.77 267.594C2505.68 267.594 2504.64 264.469 2504.64 258.219C2504.64 251.448 2505.68 247.021 2507.77 244.938L2601.52 246.5C2616.62 247.021 2635.11 246.76 2656.98 245.719C2678.86 244.156 2697.09 243.375 2711.67 243.375C2739.8 243.375 2766.62 248.844 2792.14 259.781C2818.18 270.719 2839.28 286.865 2855.42 308.219C2872.09 329.573 2880.42 355.615 2880.42 386.344C2880.42 408.219 2872.09 431.135 2855.42 455.094C2839.28 479.052 2817.14 497.542 2789.02 510.562C2783.81 512.646 2782.24 515.25 2784.33 518.375C2809.85 572.542 2839.8 618.375 2874.17 655.875C2924.17 710.562 2964.8 737.906 2996.05 737.906C2997.61 741.031 2998.39 744.677 2998.39 748.844C2998.39 753.531 2997.61 757.438 2996.05 760.562C2990.84 762.125 2983.81 762.906 2974.95 762.906ZM2703.08 486.344H2722.61C2735.11 486.344 2747.87 482.177 2760.89 473.844C2774.43 465.51 2785.63 453.792 2794.48 438.688C2803.86 423.583 2808.55 406.135 2808.55 386.344C2808.55 313.948 2772.09 277.75 2699.17 277.75C2675.21 277.75 2656.98 279.573 2644.48 283.219C2639.8 284.26 2636.93 292.854 2635.89 309C2635.37 324.625 2635.11 344.677 2635.11 369.156V463.688C2635.11 478.792 2657.77 486.344 2703.08 486.344ZM3020.27 761.344C3018.7 759.781 3017.92 755.875 3017.92 749.625C3017.92 742.333 3018.7 738.688 3020.27 738.688C3024.95 738.688 3031.2 737.906 3039.02 736.344C3046.83 734.26 3054.12 731.917 3060.89 729.312C3068.18 726.708 3072.61 723.844 3074.17 720.719C3077.82 714.99 3079.64 690.51 3079.64 647.281V351.969C3079.64 336.865 3079.12 323.583 3078.08 312.125C3077.56 300.667 3076.26 291.552 3074.17 284.781C3073.13 281.656 3068.96 278.792 3061.67 276.188C3054.9 273.583 3047.35 271.5 3039.02 269.938C3031.2 268.375 3024.95 267.594 3020.27 267.594C3018.18 267.594 3017.14 264.469 3017.14 258.219C3017.14 251.448 3018.18 247.021 3020.27 244.938C3033.81 245.458 3048.13 245.979 3063.23 246.5C3078.86 246.5 3095.53 246.5 3113.23 246.5L3189.02 245.719C3204.12 245.719 3216.62 245.719 3226.52 245.719C3236.41 245.198 3243.96 244.938 3249.17 244.938C3305.94 244.938 3354.38 256.656 3394.48 280.094C3434.59 303.01 3465.32 333.479 3486.67 371.5C3508.03 409.521 3518.7 451.188 3518.7 496.5C3518.7 546.5 3507.77 591.812 3485.89 632.438C3464.54 673.062 3433.55 705.094 3392.92 728.531C3352.82 751.969 3304.64 762.906 3248.39 761.344L3192.92 759.781C3177.3 759.26 3162.97 759 3149.95 759C3136.93 758.479 3125.21 758.479 3114.8 759L3020.27 761.344ZM3260.89 725.406C3380.68 725.406 3440.58 648.062 3440.58 493.375C3440.58 453.792 3433.55 417.854 3419.48 385.562C3405.42 353.271 3384.59 327.49 3356.98 308.219C3329.9 288.948 3296.05 279.312 3255.42 279.312H3251.52C3195.27 279.312 3164.02 283.479 3157.77 291.812C3150.99 300.667 3147.61 317.073 3147.61 341.031V650.406C3147.61 671.76 3151.52 691.552 3159.33 709.781C3160.37 712.385 3164.8 714.729 3172.61 716.812C3180.42 718.375 3189.8 719.938 3200.73 721.5C3212.19 722.542 3223.39 723.583 3234.33 724.625C3245.27 725.146 3254.12 725.406 3260.89 725.406Z" fill="black"/>
</svg>
