<svg width="2065" height="608" viewBox="0 0 2065 608" fill="none" xmlns="http://www.w3.org/2000/svg">
<g clip-path="url(#clip0_67_33)">
<path d="M1991.53 608H72.3362C32.4587 608 0 575.654 0 536.058V71.8352C0 32.224 32.4587 0 72.3362 0H1991.53C2031.39 0 2065 32.224 2065 71.8352V536.058C2065 575.654 2031.39 608 1991.53 608Z" fill="#A6A6A6"/>
<path d="M2050.19 536.074C2050.19 568.237 2023.97 594.29 1991.55 594.29H72.3358C39.9229 594.29 13.6133 568.237 13.6133 536.074V71.8201C13.6133 39.6721 39.9229 13.5281 72.3358 13.5281H1991.53C2023.97 13.5281 2050.18 39.6721 2050.18 71.8201L2050.19 536.074Z" fill="black"/>
<path d="M460.847 300.717C460.403 251.727 501.214 227.894 503.08 226.784C479.967 193.298 444.143 188.723 431.555 188.358C401.467 185.212 372.281 206.249 356.955 206.249C341.322 206.249 317.72 188.662 292.282 189.179C259.548 189.681 228.925 208.514 212.129 237.758C177.468 297.388 203.319 385.016 236.527 433.215C253.139 456.821 272.55 483.178 297.957 482.25C322.813 481.232 332.098 466.503 362.094 466.503C391.815 466.503 400.534 482.25 426.446 481.658C453.122 481.232 469.918 457.946 485.948 434.127C505.145 407.071 512.854 380.426 513.16 379.058C512.533 378.845 461.352 359.434 460.847 300.717Z" fill="white"/>
<path d="M411.899 156.651C425.268 140.037 434.415 117.435 431.876 94.4983C412.526 95.3495 388.327 107.798 374.392 124.047C362.063 138.365 351.05 161.834 353.895 183.905C375.631 185.516 397.948 173.006 411.899 156.651Z" fill="white"/>
<path d="M797.301 428.842C792.754 428.842 787.923 428.463 782.808 427.705C777.692 427.137 773.43 426.474 770.02 425.716C763.01 424.39 757.895 423.348 754.674 422.59C751.643 421.643 748.801 420.979 746.148 420.601C743.686 408.854 741.886 399.287 740.749 391.898C739.612 384.32 739.044 378.826 739.044 375.416C739.044 374.279 740.56 373.711 743.591 373.711C747.001 373.711 749.369 374.563 750.695 376.269C757.326 403.55 773.051 417.19 797.869 417.19C807.342 417.19 815.394 414.349 822.024 408.665C828.655 402.981 831.971 394.93 831.971 384.51C831.971 381.1 831.213 376.932 829.697 372.006C828.371 367.08 825.245 362.817 820.319 359.218C816.53 356.376 813.404 354.292 810.941 352.966C808.479 351.45 806.016 350.124 803.553 348.987C801.09 347.661 797.964 345.861 794.175 343.588L782.808 336.768C776.935 333.168 771.062 329.095 765.188 324.548C759.315 319.812 754.39 314.317 750.411 308.065C746.622 301.813 744.728 294.709 744.728 286.752C744.728 276.711 747.285 267.996 752.4 260.607C757.705 253.029 764.525 247.156 772.861 242.988C781.387 238.82 790.575 236.736 800.427 236.736C804.595 236.736 808.479 237.021 812.078 237.589C815.867 237.968 818.993 238.441 821.456 239.01C827.14 240.336 831.118 241.378 833.392 242.136C835.854 242.894 839.17 243.746 843.338 244.693C845.611 254.545 846.748 268.091 846.748 285.331C846.748 286.657 845.801 287.32 843.906 287.32C839.17 287.32 836.707 286.373 836.518 284.479C835.57 278.795 833.486 273.206 830.266 267.712C827.045 262.218 822.688 257.671 817.193 254.071C811.699 250.282 805.163 248.388 797.585 248.388C789.817 248.388 783.755 249.903 779.397 252.935C775.04 255.776 771.914 259.471 770.02 264.018C768.314 268.375 767.462 273.017 767.462 277.942C767.462 282.679 768.599 287.415 770.872 292.151C773.146 296.888 776.461 300.866 780.818 304.087C786.691 308.444 792.564 312.518 798.438 316.307C804.5 320.096 810.752 323.979 817.193 327.958C823.256 331.747 829.318 336.01 835.381 340.746C841.443 345.293 846.464 350.503 850.442 356.376C854.61 362.249 856.694 369.069 856.694 376.837C856.694 386.878 853.947 395.877 848.453 403.834C842.959 411.602 835.665 417.759 826.571 422.306C817.667 426.663 807.91 428.842 797.301 428.842ZM904.732 427.825C896.736 427.825 890.131 425.739 884.916 421.567C879.701 417.222 877.094 410.79 877.094 402.272C877.094 391.843 883.873 383.151 897.432 376.198C903.342 373.243 909.165 370.896 914.901 369.158C920.812 367.42 926.722 365.421 932.632 363.161C934.196 362.64 934.979 361.336 934.979 359.25V339.694C934.979 334.132 933.24 329.873 929.764 326.918C926.287 323.789 922.115 322.225 917.248 322.225C912.033 322.225 907.688 324.05 904.211 327.7C900.734 331.177 898.996 335.783 898.996 341.52C898.996 347.604 895.433 350.646 888.306 350.646C883.265 350.646 879.875 348.994 878.137 345.691C878.137 342.041 879.614 338.304 882.569 334.479C885.698 330.481 889.696 326.831 894.563 323.528C899.431 320.226 904.732 317.531 910.469 315.445C916.379 313.359 922.202 312.316 927.938 312.316C937.499 312.316 944.365 314.663 948.537 319.356C952.709 323.876 954.795 331.264 954.795 341.52V401.751C954.795 405.401 955.751 408.443 957.663 410.877C959.575 413.311 962.183 414.527 965.485 414.527C967.745 414.527 970.787 413.311 974.611 410.877C975.307 410.877 975.654 411.572 975.654 412.963C975.654 415.223 975.22 417.048 974.351 418.438C967.224 424.522 961.14 427.564 956.099 427.564C952.101 427.564 948.276 425.913 944.626 422.61C940.976 419.308 938.455 415.831 937.064 412.181C936.195 412.876 935.065 413.832 933.675 415.049C932.458 416.092 931.415 416.961 930.546 417.656C926.896 420.438 922.897 422.871 918.552 424.957C914.38 426.869 909.773 427.825 904.732 427.825ZM914.641 412.963C919.508 412.963 924.114 411.572 928.46 408.791C932.806 406.01 934.979 403.055 934.979 399.926V373.069C930.459 374.808 926.113 376.372 921.941 377.763C917.943 379.153 914.728 380.283 912.294 381.152C909.165 382.369 906.123 384.542 903.168 387.671C900.387 390.8 898.996 394.363 898.996 398.361C898.996 403.576 900.561 407.313 903.689 409.573C906.992 411.833 910.643 412.963 914.641 412.963ZM985.041 426.782C984.52 426.261 984.172 424.87 983.998 422.61C983.998 420.351 984.346 419.221 985.041 419.221C986.432 419.221 988.257 418.96 990.517 418.438C992.776 417.917 994.862 417.222 996.774 416.353C998.86 415.483 999.99 414.701 1000.16 414.006C1001.03 410.529 1001.64 406.879 1001.99 403.055C1002.51 399.23 1002.77 395.146 1002.77 390.8V330.829C1002.77 329.612 1002.34 329.004 1001.47 329.004H987.648C987.127 329.004 986.866 328.482 986.866 327.439C986.866 325.875 988.17 323.702 990.777 320.921C993.559 318.14 996.601 316.749 999.903 316.749H1001.47C1002.34 316.749 1002.77 316.228 1002.77 315.185V311.795C1002.77 302.582 1004.25 293.978 1007.2 285.981C1010.16 277.985 1014.07 270.858 1018.94 264.601C1023.98 258.343 1029.54 253.476 1035.62 249.999C1041.88 246.522 1048.23 244.784 1054.66 244.784C1067.35 244.784 1075.61 248.174 1079.43 254.953C1079.43 265.904 1076.3 271.38 1070.04 271.38C1068.13 271.38 1066.39 270.598 1064.83 269.033C1063.26 267.295 1061.61 265.383 1059.87 263.297C1058.31 261.037 1056.4 259.125 1054.14 257.561C1052.05 255.822 1049.53 254.953 1046.58 254.953C1041.54 254.953 1037.19 257.126 1033.54 261.472C1029.89 265.817 1027.11 271.554 1025.2 278.681C1023.46 285.808 1022.59 293.63 1022.59 302.147V315.445C1022.59 316.314 1023.02 316.749 1023.89 316.749H1052.83C1053.7 316.749 1054.14 317.357 1054.14 318.574C1054.14 321.355 1053.09 324.832 1051.01 329.004H1024.15C1023.11 329.004 1022.59 329.525 1022.59 330.568V390.8C1022.59 400.187 1023.37 407.922 1024.93 414.006C1025.28 414.701 1026.41 415.483 1028.32 416.353C1030.24 417.222 1032.32 417.917 1034.58 418.438C1036.84 418.96 1038.49 419.221 1039.54 419.221C1040.06 419.221 1040.41 420.264 1040.58 422.35C1040.75 424.436 1040.67 425.913 1040.32 426.782L1012.42 425.479L985.041 426.782ZM1093.51 427.825C1085.51 427.825 1078.91 425.739 1073.69 421.567C1068.48 417.222 1065.87 410.79 1065.87 402.272C1065.87 391.843 1072.65 383.151 1086.21 376.198C1092.12 373.243 1097.94 370.896 1103.68 369.158C1109.59 367.42 1115.5 365.421 1121.41 363.161C1122.97 362.64 1123.76 361.336 1123.76 359.25V339.694C1123.76 334.132 1122.02 329.873 1118.54 326.918C1115.06 323.789 1110.89 322.225 1106.03 322.225C1100.81 322.225 1096.46 324.05 1092.99 327.7C1089.51 331.177 1087.77 335.783 1087.77 341.52C1087.77 347.604 1084.21 350.646 1077.08 350.646C1072.04 350.646 1068.65 348.994 1066.91 345.691C1066.91 342.041 1068.39 338.304 1071.35 334.479C1074.48 330.481 1078.47 326.831 1083.34 323.528C1088.21 320.226 1093.51 317.531 1099.25 315.445C1105.16 313.359 1110.98 312.316 1116.72 312.316C1126.28 312.316 1133.14 314.663 1137.31 319.356C1141.49 323.876 1143.57 331.264 1143.57 341.52V401.751C1143.57 405.401 1144.53 408.443 1146.44 410.877C1148.35 413.311 1150.96 414.527 1154.26 414.527C1156.52 414.527 1159.56 413.311 1163.39 410.877C1164.08 410.877 1164.43 411.572 1164.43 412.963C1164.43 415.223 1164 417.048 1163.13 418.438C1156 424.522 1149.92 427.564 1144.88 427.564C1140.88 427.564 1137.05 425.913 1133.4 422.61C1129.75 419.308 1127.23 415.831 1125.84 412.181C1124.97 412.876 1123.84 413.832 1122.45 415.049C1121.24 416.092 1120.19 416.961 1119.32 417.656C1115.67 420.438 1111.67 422.871 1107.33 424.957C1103.16 426.869 1098.55 427.825 1093.51 427.825ZM1103.42 412.963C1108.29 412.963 1112.89 411.572 1117.24 408.791C1121.58 406.01 1123.76 403.055 1123.76 399.926V373.069C1119.24 374.808 1114.89 376.372 1110.72 377.763C1106.72 379.153 1103.5 380.283 1101.07 381.152C1097.94 382.369 1094.9 384.542 1091.95 387.671C1089.16 390.8 1087.77 394.363 1087.77 398.361C1087.77 403.576 1089.34 407.313 1092.47 409.573C1095.77 411.833 1099.42 412.963 1103.42 412.963ZM1175.64 426.782C1174.95 426.087 1174.6 424.609 1174.6 422.35C1174.6 420.264 1174.95 419.221 1175.64 419.221C1177.03 419.221 1178.95 418.96 1181.38 418.438C1183.81 417.917 1186.07 417.222 1188.16 416.353C1190.25 415.483 1191.38 414.701 1191.55 414.006C1192.24 411.572 1192.68 408.791 1192.85 405.662C1193.2 402.533 1193.37 399.23 1193.37 395.754V346.474C1193.37 339.868 1192.16 335.175 1189.72 332.394C1187.99 330.308 1185.9 328.917 1183.47 328.222C1181.21 327.526 1179.12 327.179 1177.21 327.179C1175.47 327.005 1174.6 326.744 1174.6 326.396C1174.6 322.225 1175.12 320.052 1176.17 319.878C1195.11 316.923 1206.06 315.011 1209.02 314.142L1213.45 312.838C1214.15 312.664 1214.58 313.359 1214.75 314.924C1214.93 316.488 1214.93 317.618 1214.75 318.313L1213.19 331.351C1216.32 326.657 1220.58 322.312 1225.97 318.313C1231.53 314.142 1237 312.056 1242.39 312.056C1252.48 312.056 1259.25 314.576 1262.73 319.617C1262.73 325.701 1261.78 330.134 1259.86 332.915C1257.95 335.696 1255.6 337.087 1252.82 337.087C1249.69 337.087 1246.83 335.609 1244.22 332.654C1241.61 329.699 1238.05 328.222 1233.53 328.222C1230.05 328.222 1226.75 329.438 1223.62 331.872C1220.49 334.132 1217.97 337.087 1216.06 340.737C1214.32 344.214 1213.45 347.864 1213.45 351.688V390.8C1213.45 395.841 1213.62 400.273 1213.97 404.098C1214.32 407.922 1214.84 411.225 1215.54 414.006C1215.88 414.701 1217.1 415.483 1219.19 416.353C1221.27 417.222 1223.53 417.917 1225.97 418.438C1228.57 418.96 1230.4 419.221 1231.44 419.221C1231.96 419.221 1232.31 420.264 1232.49 422.35C1232.66 424.436 1232.57 425.913 1232.22 426.782L1204.06 425.479L1175.64 426.782ZM1274.46 426.782C1273.77 426.087 1273.42 424.609 1273.42 422.35C1273.42 420.264 1273.77 419.221 1274.46 419.221C1275.86 419.221 1277.77 418.96 1280.2 418.438C1282.63 417.917 1284.89 417.222 1286.98 416.353C1289.07 415.483 1290.2 414.701 1290.37 414.006C1291.07 411.572 1291.5 408.791 1291.67 405.662C1292.02 402.533 1292.2 399.23 1292.2 395.754V346.474C1292.2 339.868 1290.98 335.175 1288.54 332.394C1286.81 330.134 1284.72 328.743 1282.29 328.222C1279.85 327.526 1277.77 327.179 1276.03 327.179C1274.29 327.005 1273.42 326.744 1273.42 326.396C1273.42 322.225 1273.94 320.052 1274.99 319.878C1284.2 318.487 1291.24 317.357 1296.11 316.488C1300.97 315.445 1305.32 314.489 1309.14 313.62L1312.27 312.838C1312.97 312.664 1313.4 313.359 1313.58 314.924C1313.75 316.488 1313.75 317.618 1313.58 318.313C1313.23 321.79 1312.88 325.093 1312.53 328.222C1312.36 331.351 1312.27 334.306 1312.27 337.087V390.8C1312.27 395.841 1312.45 400.273 1312.79 404.098C1313.14 407.922 1313.66 411.225 1314.36 414.006C1314.71 414.701 1315.92 415.483 1318.01 416.353C1320.09 417.222 1322.35 417.917 1324.79 418.438C1327.22 418.96 1328.96 419.221 1330 419.221C1330.52 419.221 1330.87 420.264 1331.05 422.35C1331.22 424.436 1331.13 425.913 1330.79 426.782L1302.89 425.479L1274.46 426.782ZM1300.28 284.417C1296.8 284.417 1293.76 283.113 1291.15 280.506C1288.54 277.898 1287.24 274.856 1287.24 271.38C1287.24 267.729 1288.54 264.688 1291.15 262.254C1293.76 259.646 1296.8 258.343 1300.28 258.343C1303.93 258.343 1306.97 259.646 1309.4 262.254C1312.01 264.688 1313.32 267.729 1313.32 271.38C1313.32 274.856 1312.01 277.898 1309.4 280.506C1306.97 283.113 1303.93 284.417 1300.28 284.417Z" fill="white"/>
<path d="M778.465 139.192L779.361 131.016H805.009L804.897 167.192C803.18 168.163 801.127 169.059 798.737 169.88C796.348 170.701 793.772 171.336 791.009 171.784C788.321 172.307 785.596 172.568 782.833 172.568C775.068 172.568 768.311 170.851 762.561 167.416C756.887 163.907 752.481 159.203 749.345 153.304C746.284 147.405 744.753 140.76 744.753 133.368C744.753 127.469 745.724 122.093 747.665 117.24C749.681 112.312 752.444 108.056 755.953 104.472C759.537 100.888 763.719 98.1253 768.497 96.184C773.276 94.2427 778.465 93.272 784.065 93.272C785.633 93.272 787.612 93.4213 790.001 93.72C792.391 94.0187 794.817 94.504 797.281 95.176C799.82 95.848 801.985 96.744 803.777 97.864L800.417 105.592C798.625 104.92 796.945 104.36 795.377 103.912C793.884 103.464 792.279 103.128 790.561 102.904C788.844 102.605 786.753 102.456 784.289 102.456C780.631 102.456 777.084 103.128 773.649 104.472C770.289 105.816 767.265 107.795 764.577 110.408C761.889 112.947 759.761 116.157 758.193 120.04C756.7 123.848 755.953 128.253 755.953 133.256C755.953 139.379 757.111 144.717 759.425 149.272C761.74 153.752 764.913 157.224 768.945 159.688C772.977 162.152 777.532 163.384 782.609 163.384C785.148 163.384 787.425 163.197 789.441 162.824C791.532 162.451 793.399 162.003 795.041 161.48V139.192H778.465ZM869.066 171H820.682V94.84H863.578L865.034 103.128H831.434V128.104H857.306L858.762 136.392H831.434V162.6H867.61L869.066 171ZM932.681 94.84L934.249 103.352H908.041V171H897.177V103.352H872.425V94.84H932.681ZM982.043 171H971.291V94.84H982.043V171ZM1053.54 94.84L1055.11 103.352H1028.9V171H1018.04V103.352H993.284V94.84H1053.54ZM1122.61 172.568C1115.67 172.568 1109.47 170.888 1104.02 167.528C1098.57 164.168 1094.28 159.539 1091.14 153.64C1088.08 147.667 1086.55 140.909 1086.55 133.368C1086.55 125.677 1088.12 118.845 1091.25 112.872C1094.39 106.824 1098.68 102.045 1104.13 98.536C1109.66 95.0267 1115.93 93.1973 1122.95 93.048C1129.97 93.048 1136.2 94.7653 1141.65 98.2C1147.1 101.56 1151.4 106.227 1154.53 112.2C1157.67 118.099 1159.24 124.819 1159.24 132.36C1159.24 140.051 1157.63 146.92 1154.42 152.968C1151.29 158.941 1146.96 163.683 1141.43 167.192C1135.98 170.627 1129.71 172.419 1122.61 172.568ZM1122.5 163.384C1127.43 163.384 1131.8 162.077 1135.61 159.464C1139.41 156.776 1142.4 153.117 1144.57 148.488C1146.73 143.784 1147.81 138.445 1147.81 132.472C1147.81 126.648 1146.73 121.459 1144.57 116.904C1142.48 112.349 1139.56 108.803 1135.83 106.264C1132.17 103.651 1127.95 102.344 1123.17 102.344C1118.25 102.344 1113.88 103.688 1110.07 106.376C1106.26 108.989 1103.24 112.611 1101 117.24C1098.83 121.869 1097.75 127.171 1097.75 133.144C1097.75 138.968 1098.8 144.157 1100.89 148.712C1103.05 153.267 1106 156.851 1109.73 159.464C1113.47 162.077 1117.72 163.384 1122.5 163.384ZM1184.5 171H1173.74V94.84H1183.26L1217.42 142.776L1222.8 151.176V94.84H1233.66V171H1224.03L1188.75 120.936L1184.5 114.216V171Z" fill="white"/>
</g>
<defs>
<clipPath id="clip0_67_33">
<rect width="2065" height="608" fill="white"/>
</clipPath>
</defs>
</svg>
